<?xml version="1.0" encoding="UTF-8"?>
<!-- Generator: Adobe Illustrator 23.0.2, SVG Export Plug-In . SVG Version: 6.00 Build 0)  -->
<svg xmlns="http://www.w3.org/2000/svg" xmlns:xlink="http://www.w3.org/1999/xlink" id="Layer_1" x="0px" y="0px" viewBox="0 0 1005.04 998.31" style="enable-background:new 0 0 1005.04 998.31;" xml:space="preserve">
<style type="text/css">
	.st0{fill:#020202;}
</style>
<g>
	<path class="st0" d="M212.82,724.75c5.82-9.26,11.22-18.03,16.92-26.61c0.54-0.82,3.15-0.9,4.49-0.44   c6.41,2.2,12.54,5.54,19.09,6.94c13.29,2.83,26.64-3.65,32.27-14.6c6.11-11.89,3.85-26.05-6.49-35.66   c-5.45-5.07-11.87-9.1-17.87-13.58c-5.47-4.08-11.28-7.77-16.4-12.24c-12.04-10.51-15-25.27-8.52-39.9   c0.7-1.58,1.39-3.16,2.56-5.81c-13.83,2.61-26.47,4.99-39.94,7.53c0-26.1,0-51.47,0-77.68c-20.31,4.29-39.74,8.39-60.42,12.76   c1.68-6.85,3.01-12.76,4.6-18.6c1.7-6.26,3.34-12.56,5.65-18.6c0.76-2,3.3-4.21,5.39-4.67c13.3-2.97,26.7-5.5,40.07-8.12   c2.81-0.55,4.95-1.24,4.94-4.92c-0.1-35.16-0.06-70.33-0.08-105.49c0-0.64-0.23-1.28-0.55-3.02c-1.67,1.7-2.94,2.77-3.93,4.05   c-24.94,32.29-43.89,67.88-58.24,105.98c-14.66,38.94-24.18,79.14-29.1,120.44c-0.51,4.29-0.93,8.62-1.89,12.81   c-0.36,1.55-1.96,3.69-3.34,3.99c-12.15,2.63-24.39,4.91-37.39,7.44c0.56-8.03,0.8-15.63,1.65-23.15   c4.15-36.99,12.2-73.11,24.81-108.16c20.61-57.32,50.25-109.41,90.15-155.56c2.84-3.28,5.92-5.31,10.38-6.03   c15.56-2.52,31.04-5.47,47.87-8.49c0,44.34,0,88.2,0,132.05c0,43.95,0,87.91,0,131.86c0.47,0.19,0.93,0.38,1.4,0.57   c17.84-15.28,37.38-18.36,59.75-8.65c-5.03,7.77-9.71,15.14-14.64,22.34c-0.42,0.61-2.62,0.25-3.91-0.02   c-4.02-0.84-7.97-2.32-12.02-2.66c-4-0.34-6.97,2.1-8.32,5.94c-1.27,3.62,0.17,6.62,3.06,8.79c7.33,5.5,14.74,10.87,22.15,16.27   c14.36,10.46,26.35,22.73,29.37,41.16c5.56,33.99-18.16,59.24-42.42,66.92C253.1,736.51,233.23,733.51,212.82,724.75z"></path>
	<path class="st0" d="M651.16,655.52c0-43.95,0-87.19,0-131.45c-9.08,1.63-17.45,3.13-26.52,4.75c0-8.05-0.15-15.67,0.17-23.26   c0.04-1.06,2.25-2.67,3.67-2.95c19.56-3.86,39.16-7.52,58.75-11.27c1.07-0.2,2.07-0.75,3.09-2.05c-5.9-0.85-11.86-1.44-17.7-2.6   c-26.92-5.33-52.73-13.73-73.68-32.22c-8.75-7.72-15.62-17.59-23.28-26.53c-2.55-2.98-2.34-5.94-0.56-9.56   c9.04-18.36,18.28-36.66,26.35-55.45c3.33-7.74,4.66-16.6,5.5-25.09c0.86-8.66-4.22-13.26-12.81-12.48   c-7.92,0.71-15.77,2.32-23.65,3.54c-3.1,0.48-3.24,2.7-3.22,5.21c0.07,10.33,0.03,20.66,0.03,30.99c0,40.99-0.06,81.98,0.09,122.96   c0.02,4.46-1.03,6.49-5.81,7.15c-8.71,1.2-17.37,2.97-25.94,4.99c-4.63,1.09-5.88-0.2-5.87-4.75c0.12-31.16,0.06-62.31,0.06-93.47   c0-30.99,0.12-61.98-0.12-92.97c-0.04-4.94,1.75-6.69,6.25-7.5c21.1-3.77,42.1-8.16,63.27-11.43c7.92-1.22,16.36-0.91,24.3,0.35   c13.86,2.2,21.78,12.39,23.99,26.35c2.85,18.03-2.04,34.33-9.54,50.14c-6.99,14.73-14.46,29.24-21.99,43.7   c-1.7,3.27-1.4,5.3,1.14,7.8c17.44,17.15,38.3,27.45,62.42,30.95c6.88,1,13.93,1.02,20.9,1.04c3.58,0.01,5.03,0.84,4.99,4.71   c-0.17,17.99-0.17,35.99-0.01,53.98c0.03,3.45-1.3,4.64-4.45,5.12c-5.58,0.85-11.08,2.28-16.67,3c-4.07,0.53-5.03,2.5-5.01,6.32   c0.13,29.49,0.07,58.98,0.07,88.47c0,10.83-0.14,21.66,0.07,32.49c0.08,3.96-0.76,6.01-5.2,6.6   C666.71,652.13,659.3,653.92,651.16,655.52z"></path>
	<path class="st0" d="M837.99,328.14c-0.59,50.08-39.57,96.82-89.1,106.23c-41.08,7.81-77.77-18.36-82.77-59.55   c-4.64-38.19,10.22-69.01,37.82-94.27c17.67-16.17,38.84-25.6,62.87-25.78c34.3-0.26,60.9,20.43,68.5,54.15   C836.73,315.21,837.12,321.72,837.99,328.14z M804.05,335.16c0.1-27.37-20.92-47.67-46.55-45.2c-37.44,3.61-64.22,42.69-58.2,75.21   c3.65,19.77,20.64,35.06,40.72,35.28C773.16,400.82,803.93,369.45,804.05,335.16z"></path>
	<path class="st0" d="M271.92,551.51c0-2.84,0-4.63,0-6.43c-0.02-61.63,0.03-123.26-0.17-184.89c-0.02-5.32,1.36-7.53,6.84-8.45   c22.12-3.68,44.11-8.17,66.24-11.73c10.98-1.76,22.01-0.83,31.85,5.27c10.95,6.79,13.86,17.82,14.6,29.62   c1.03,16.59-5.14,31.35-12.77,45.52c-17.28,32.11-40.66,59.62-65.66,85.84c-2.5,2.62-3.59,5.22-3.56,8.82   c0.05,8.32-0.37,16.64-0.49,24.96c-0.04,2.95-1.05,4.37-4.22,4.94C293.99,546.88,283.46,549.17,271.92,551.51z M309.45,457.84   c1.41-1.17,2.17-1.57,2.61-2.2c11.43-16.15,23.13-32.12,34.02-48.63c3.17-4.8,4.58-11.05,5.71-16.84   c2.01-10.37-3.28-16.8-13.86-16.29c-8.06,0.39-16.02,2.55-24.05,3.7c-4.24,0.61-5.71,2.53-5.64,6.96   c0.34,22.48,0.33,44.96,0.48,67.44C308.74,453.67,309.14,455.36,309.45,457.84z"></path>
	<path class="st0" d="M448.38,399.18c15.66-2.95,30.3-5.7,46.08-8.67c0,5.61,0.06,10.81-0.01,16.02   c-0.17,11.95,1.9,9.64-10.46,12.18c-10.41,2.14-20.86,4.14-31.33,5.99c-3.32,0.59-4.34,2.21-4.32,5.42   c0.1,16.16,0.1,32.32,0.01,48.48c-0.02,3.7,0.87,5,4.96,4.11c16.08-3.47,32.23-6.6,48.36-9.84c1.93-0.39,3.89-0.63,6.14-0.99   c0.26,1.13,0.64,2.04,0.64,2.95c0.03,8.66-0.07,17.33,0.03,25.99c0.03,2.96-0.86,4.43-4.04,5.05   c-29.68,5.77-59.34,11.7-88.99,17.62c-2.92,0.58-4.52-0.14-4.31-3.45c0.13-2.16,0.02-4.33,0.02-6.5   c0-60.65,0.06-121.29-0.13-181.94c-0.01-4.74,1.75-6.28,5.93-7.06c27.44-5.14,54.86-10.36,82.25-15.74   c4.21-0.83,5.36,0.42,5.2,4.45c-0.23,5.82-0.36,11.68,0.04,17.48c0.28,4.03-1.62,5.21-4.99,5.84c-14.38,2.67-28.73,5.5-43.1,8.18   c-7.95,1.49-7.97,1.41-7.97,9.33c0,12.83,0,25.66,0,38.49C448.38,394.38,448.38,396.17,448.38,399.18z"></path>
	<path class="st0" d="M456.19,693.5c-0.12-2.35-0.29-4.13-0.29-5.91c-0.03-48.49,0.05-96.99-0.19-145.48   c-0.03-5.18,1.85-6.86,6.5-7.67c15.39-2.66,30.68-6,46.12-8.33c6.83-1.03,14.06-1.2,20.87-0.16c11.81,1.79,18.16,10.71,19.28,23.35   c1.28,14.39-3.07,27.31-9.14,39.86c-5.08,10.49-10.24,20.96-15.92,31.13c-2.45,4.4-1.8,7.09,1.69,10.29   c17.69,16.22,38.33,24.9,62.45,24.94c7.12,0.01,7.12,0.01,7.13,7.06c0.01,5,0.01,10,0,15c-0.02,6.39-0.7,7.62-7.21,6.94   c-10.38-1.08-20.86-2.35-30.94-4.93c-22.7-5.81-42.91-16.18-58.12-34.8c-9.05-11.07-9.05-10.91-2.75-23.84   c6.12-12.56,12.21-25.14,17.77-37.95c2.22-5.11,3.44-10.79,4.3-16.34c1.57-10.12-4.19-15.71-14.26-14.31   c-4.61,0.64-9.15,1.79-13.77,2.22c-4.29,0.4-5.43,2.41-5.41,6.51c0.13,34.49,0.06,68.99,0.06,103.49c0,6.5,0.14,13-0.11,19.49   c-0.06,1.5-1.2,3.99-2.26,4.24C473.62,690.24,465.15,691.75,456.19,693.5z"></path>
	<path class="st0" d="M857.21,337.88c0-30.99,0.09-61.98-0.1-92.97c-0.03-4.42,1.3-6.12,5.68-6.78c8.87-1.33,17.71-3,26.42-5.09   c4.6-1.1,5.51,0.41,5.49,4.56c-0.1,26.49-0.05,52.99-0.05,79.48c0,24.33-0.01,48.65,0.01,72.98c0.01,6.52,0.16,6.66,6.32,5.46   c15.98-3.12,31.99-6.13,47.9-9.58c4.84-1.05,5.87,0.49,5.75,4.86c-0.21,7.33-0.34,14.68,0.05,21.99c0.24,4.48-1.55,6.05-5.67,6.83   c-27.59,5.24-55.15,10.66-82.72,16.02c-0.98,0.19-1.97,0.31-2.95,0.52c-5.62,1.19-6.1,0.85-6.1-4.8   c-0.02-31.16-0.01-62.32-0.01-93.47C857.23,337.88,857.22,337.88,857.21,337.88z"></path>
	<path class="st0" d="M339.17,636.54c-0.01-24.31,0.05-48.62-0.07-72.93c-0.02-3.54,0.74-5.5,4.6-6.17   c17.5-3.04,34.92-6.67,52.48-9.29c6.26-0.93,13.01-0.41,19.25,0.84c10.12,2.03,16.35,10.34,18.05,20.86   c1.91,11.86-0.78,22.81-5.6,33.41c-11.17,24.55-27.35,45.79-45.85,65c-9.84,10.23-15.76,20.43-14.32,34.88   c0.73,7.27-0.14,7.35-7.25,8.8c-5.37,1.1-10.79,2.02-16.09,3.38c-4.12,1.06-5.28-0.26-5.26-4.35   C339.24,686.16,339.18,661.35,339.17,636.54z M368.33,643.44c1.61-1.43,2.59-2.04,3.22-2.91c8.32-11.42,17.04-22.59,24.69-34.44   c3.6-5.57,5.79-12.3,7.43-18.8c1.99-7.9-2.8-13.73-10.94-13.44c-6.74,0.24-13.42,1.89-20.13,2.84c-4.03,0.57-5.35,2.69-5.28,6.8   c0.3,17.97,0.27,35.94,0.4,53.91C367.73,639.12,368.06,640.84,368.33,643.44z"></path>
	<path class="st0" d="M767.15,501.23c-9.61,1.84-17.56,3.35-25.51,4.9c-3.91,0.76-7.81,1.59-11.71,2.42   c-3.48,0.74-5.37-0.18-5.31-4.2c0.08-5.32-0.48-10.67-0.22-15.97c0.08-1.64,1.74-4.33,3.07-4.6c25.53-5.17,51.12-10.06,77.65-15.19   c-15.83,46.75-31.42,92.77-47.47,140.16c16.52-3.13,31.73-6,47.61-9.01c0,8.23,0.21,15.86-0.22,23.45   c-0.07,1.18-2.94,2.82-4.73,3.18c-14.32,2.93-28.7,5.6-43.06,8.37c-11.9,2.3-23.79,4.63-36.94,7.19   C735.93,595.01,751.3,548.83,767.15,501.23z"></path>
	<path class="st0" d="M578.37,642.51c-0.1-2.19-0.25-3.81-0.25-5.42c-0.01-25.98,0.11-51.97-0.13-77.95   c-0.04-4.31,1.46-5.89,5.37-6.52c7.34-1.19,14.63-2.65,22.61-4.12c0.14,1.97,0.35,3.54,0.35,5.11c0.02,26.15-0.06,52.3,0.09,78.45   c0.02,3.93-1.09,5.51-5.13,6.08C593.76,639.19,586.34,640.95,578.37,642.51z"></path>
	<path class="st0" d="M383.95,325.73c-3.61-3.43-7.9-6.38-10.73-10.36c-49.55-69.63-98.91-139.39-148.31-209.12   c-0.86-1.21-1.63-2.48-2.44-3.72c0.36-0.25,0.71-0.51,1.07-0.76c54.22,73.99,108.45,147.98,162.67,221.97   C385.46,324.4,384.7,325.06,383.95,325.73z"></path>
	<path class="st0" d="M624.94,966.78c-23.19-88.77-46.37-177.53-69.66-266.66c4.47-0.09,6.44,1.55,7.45,5.73   c18.13,74.75,36.43,149.46,54.68,224.18c2.8,11.46,5.58,22.92,8.35,34.38c0.17,0.69,0.2,1.42,0.3,2.13   C625.69,966.62,625.31,966.7,624.94,966.78z"></path>
	<path class="st0" d="M484.08,286.94c-3.82,1.34-5.68,1.24-6.16-3.09c-3.5-31.89-7.2-63.77-10.87-95.64   c-3.2-27.74-6.49-55.47-9.66-83.21c-2.83-24.77-5.55-49.55-8.34-74.32c-0.6-5.35-1.28-10.7-1.92-16.05   c0.46-0.05,0.93-0.1,1.39-0.15C460.37,105.27,472.22,196.06,484.08,286.94z"></path>
	<path class="st0" d="M431.82,296.65c-5.25,2.59-6.44-0.42-7.63-3.54c-10.55-27.67-21.11-55.33-31.68-83   c-20.53-53.77-41.07-107.55-61.59-161.33c-0.56-1.47-1.02-2.98-1.53-4.47c0.38-0.14,0.77-0.28,1.15-0.42   C364.27,128.06,397.99,212.22,431.82,296.65z"></path>
	<path class="st0" d="M504.14,980.5c0-1.58,0-3.15,0-4.73c-0.16-50.48-0.3-100.96-0.49-151.43c-0.14-36.48-0.35-72.96-0.53-109.44   c-0.01-1.5-0.35-3.15,0.16-4.45c0.45-1.15,1.89-1.91,2.89-2.84c0.81,1,1.9,1.89,2.34,3.03c0.39,1.01,0.08,2.3,0.06,3.47   c-0.31,24.65-0.67,49.3-0.91,73.95c-0.5,50.97-0.95,101.94-1.37,152.91c-0.11,13.14-0.02,26.28-0.02,39.42   C505.57,980.42,504.85,980.46,504.14,980.5z"></path>
	<path class="st0" d="M556.63,913.47c-9.76-74.72-19.53-149.44-29.34-224.5c4.68,0.68,6.63,2.91,7.11,7.23   c2.81,25.61,5.85,51.19,8.75,76.79c2.8,24.77,5.47,49.56,8.29,74.33c2.16,18.99,4.48,37.95,6.68,56.94   c0.34,2.94,0.42,5.91,0.62,8.87C558.03,913.24,557.33,913.36,556.63,913.47z"></path>
	<path class="st0" d="M570,15.37c-1.34,11.31-2.65,22.62-4.03,33.93c-2.5,20.46-5.06,40.92-7.57,61.38   c-2.51,20.46-5,40.92-7.49,61.38c-2.53,20.79-5.02,41.59-7.57,62.38c-1.56,12.7-3.37,25.38-4.72,38.11   c-0.39,3.67-1.97,4.91-6.24,4.89c12.12-87.55,24.2-174.9,36.29-262.24C569.13,15.25,569.56,15.31,570,15.37z"></path>
	<path class="st0" d="M618.15,694.73c40.42,75.66,80.84,151.31,121.26,226.97c-0.41,0.23-0.82,0.45-1.22,0.68   c-4.42-7.92-8.86-15.82-13.26-23.75c-35.16-63.32-70.37-126.6-105.32-190.03c-2.15-3.91-2.25-8.96-3.3-13.48   C616.92,694.99,617.53,694.86,618.15,694.73z"></path>
	<path class="st0" d="M383.54,965.59c3.3-13.19,6.59-26.38,9.92-39.56c16.89-66.9,33.79-133.8,50.66-200.7   c0.9-3.59,1.5-7.28,7.33-6.41c-22.25,82.56-44.41,164.79-66.57,247.01C384.43,965.82,383.98,965.71,383.54,965.59z"></path>
	<path class="st0" d="M752.33,838.94c-41.78-57-83.57-114-125.52-171.22c3.54-2.49,5.75-2.27,8.14,1.11   c38.99,55.21,78.08,110.34,117.13,165.51c0.77,1.08,1.29,2.34,1.93,3.51C753.45,838.22,752.89,838.58,752.33,838.94z"></path>
	<path class="st0" d="M403.31,81.79c18.29,70.01,36.57,140.02,54.84,209.94c-5.11,2.52-6.15-0.29-6.98-3.7   c-9.66-39.72-19.34-79.43-29.02-119.14c-6.62-27.12-13.27-54.23-19.87-81.35c-0.43-1.76-0.61-3.58-0.9-5.36   C402.01,82.05,402.66,81.92,403.31,81.79z"></path>
	<path class="st0" d="M509.46,69.06c0,71.95,0,143.91,0,216.16c-4.24,0.63-4.63-2.18-4.58-5.71c0.41-30.47,0.78-60.95,1.1-91.42   c0.41-38.3,0.77-76.6,1.18-114.9c0.01-1.39,0.25-2.79,0.37-4.18C508.18,69.03,508.82,69.04,509.46,69.06z"></path>
	<path class="st0" d="M671.45,676.71c4.15-2.42,6.49-0.82,8.84,1.75c20.02,21.87,40.12,43.68,60.16,65.53   c31.63,34.51,63.24,69.04,94.85,103.57c0.96,1.05,1.83,2.17,2.75,3.26c-0.31,0.28-0.62,0.56-0.93,0.84   C782.02,793.49,726.94,735.31,671.45,676.71z"></path>
	<path class="st0" d="M404.2,301.76c-4.93,3.61-6.39,0.33-8.02-2.73c-24.38-45.68-48.77-91.34-73.15-137.01   c-6.27-11.75-12.55-23.5-18.79-35.26c-0.76-1.43-1.28-2.99-1.91-4.49c0.58-0.28,1.16-0.56,1.74-0.83   C337.43,181.51,370.79,241.59,404.2,301.76z"></path>
	<path class="st0" d="M596.39,265.12c30.08-73.4,60.11-146.7,90.15-220c0.33,0.06,0.66,0.13,0.99,0.19   c-0.27,1.08-0.42,2.21-0.82,3.24c-27.72,70.93-55.48,141.85-83.17,212.79C602.31,264.49,601.01,266.79,596.39,265.12z"></path>
	<path class="st0" d="M481.37,712.84c-9.28,66.94-18.48,133.29-27.68,199.64c-0.73-0.09-1.47-0.17-2.2-0.26   c0.6-5.77,1.11-11.55,1.81-17.3c2.6-21.6,5.23-43.19,7.91-64.78c2.51-20.27,5.12-40.54,7.64-60.81   c2.12-17.14,4.34-34.28,6.13-51.45C475.39,713.78,477.23,712.87,481.37,712.84z"></path>
	<path class="st0" d="M586.59,706.02c5.39-1.84,6.18,2.06,7.4,5.27c18.48,48.32,36.94,96.65,55.4,144.98   c3.44,9.01,6.87,18.03,10.28,27.05c0.55,1.46,0.97,2.97,1.67,5.11C657.83,886.29,588.89,716.79,586.59,706.02z"></path>
	<path class="st0" d="M562.49,271.51c17.11-63.48,34.11-126.55,51.11-189.62c0.53,0.06,1.06,0.12,1.59,0.18   c-0.1,1.43,0.02,2.92-0.33,4.3c-15.13,60.1-30.33,120.18-45.43,180.29C568.56,270.17,566.81,271.71,562.49,271.51z"></path>
	<path class="st0" d="M424.5,708.91c-24.31,59.31-48.41,118.08-72.5,176.85c-0.58-0.17-1.17-0.34-1.75-0.51   c0.42-1.71,0.66-3.5,1.29-5.13c12.03-30.82,24.11-61.62,36.17-92.43c9.7-24.77,19.42-49.53,29.02-74.33   C418.03,710.01,419.63,707.86,424.5,708.91z"></path>
	<path class="st0" d="M794.1,104.67c-0.95,1.43-1.86,2.89-2.86,4.28c-39.67,55.11-79.35,110.21-118.98,165.35   c-2.5,3.47-4.94,6.66-10.58,6c43.94-58.99,87.66-117.68,131.37-176.36C793.39,104.18,793.75,104.42,794.1,104.67z"></path>
	<path class="st0" d="M301.8,321.92c-3.87,3.11-6.44,1.1-9.07-1.13c-24.38-20.7-48.78-41.37-73.18-62.05   c-27.83-23.59-55.64-47.19-83.5-70.74c-0.94-0.8-2.24-1.17-3.37-1.74c0.54-0.57,1.09-1.14,1.63-1.71   C190.08,230.29,245.86,276.04,301.8,321.92z"></path>
	<path class="st0" d="M217.68,184.02c41.37,43.69,82.74,87.39,124.34,131.32c-4.06,2.62-6.47,0.85-8.9-1.8   c-16.08-17.58-32.23-35.1-48.34-52.66c-21.51-23.45-43.02-46.91-64.5-70.4c-1.5-1.64-2.73-3.52-4.09-5.3   C216.69,184.8,217.19,184.41,217.68,184.02z"></path>
	<path class="st0" d="M270.74,920.61c0.4-0.99,0.72-2.04,1.23-2.97c32.38-59.54,64.76-119.09,97.28-178.56   c1.21-2.22,3.94-3.61,5.96-5.39c0.55,0.49,1.1,0.98,1.65,1.48c-35.04,61.98-70.08,123.96-105.12,185.94   C271.4,920.94,271.07,920.78,270.74,920.61z"></path>
	<path class="st0" d="M591.79,540.71c-8.62,0.01-15-6.51-14.95-15.27c0.05-8.54,6.3-14.91,14.7-14.99c8.74-0.09,15.18,6.26,15.23,15   C606.83,534.18,600.42,540.71,591.79,540.71z"></path>
	<path class="st0" d="M831.22,767.2c-1.53-0.91-3.21-1.65-4.58-2.77c-38-31.12-75.98-62.29-113.95-93.45   c-2.57-2.11-5.01-4.43-7.74-6.31c-2.89-2-2.91-4-0.53-7.15c42.66,36.16,85.14,72.16,127.62,108.16   C831.77,766.19,831.5,766.7,831.22,767.2z"></path>
	<path class="st0" d="M714.99,122.18c-0.56,1.39-0.98,2.85-1.69,4.15c-25.3,46.51-50.64,93-75.95,139.5   c-1.5,2.76-2.93,5.47-6.92,2.03c27.65-48.89,55.26-97.7,82.86-146.51C713.86,121.63,714.43,121.91,714.99,122.18z"></path>
	<path class="st0" d="M915.21,758.35c-52.6-33.08-105.21-66.16-158.12-99.43c3.66-2.52,6.42-1.18,9.31,0.7   c28.55,18.66,57.13,37.27,85.71,55.9c19.79,12.9,39.6,25.78,59.39,38.69c1.5,0.97,2.94,2.03,4.41,3.04   C915.68,757.62,915.44,757.98,915.21,758.35z"></path>
	<path class="st0" d="M95.85,754c1.13-0.83,2.22-1.74,3.41-2.49c45.67-29.27,91.34-58.52,137.02-87.78c2.34-1.5,4.68-3.65,7.56,0.23   c-49.16,30.38-98.24,60.71-147.32,91.03C96.29,754.66,96.07,754.33,95.85,754z"></path>
	<path class="st0" d="M990.05,529.01c-57.55-3.38-115.1-6.76-172.66-10.14c-0.25-0.51-0.5-1.03-0.74-1.54   c1.24-0.76,2.52-2.23,3.71-2.16c17.42,1.08,34.82,2.32,52.23,3.6c16.24,1.19,32.47,2.48,48.71,3.71   c22.96,1.74,45.93,3.47,68.89,5.2C990.15,528.12,990.1,528.56,990.05,529.01z"></path>
	<path class="st0" d="M257.7,833.93c23.94-33.26,47.88-66.52,71.86-99.85c4.32,1.51,3.02,3.55,1.22,5.96   c-19.43,26.02-38.81,52.08-58.21,78.13c-3.48,4.67-6.94,9.36-10.46,14.01c-0.83,1.09-1.84,2.05-2.77,3.06   C258.8,834.8,258.25,834.37,257.7,833.93z"></path>
	<path class="st0" d="M923.01,578.3c-39.5-7.35-79.01-14.71-118.51-22.06c-0.1-0.71-0.2-1.43-0.3-2.14   c1.75-0.45,3.64-1.58,5.23-1.26c29.66,5.93,59.28,12.03,88.91,18.08c7.49,1.53,14.99,3.01,22.48,4.55c0.9,0.19,1.76,0.62,2.64,0.94   C923.31,577.04,923.16,577.67,923.01,578.3z"></path>
	<path class="st0" d="M967.42,648.48c-13.08-4.21-26.16-8.45-39.25-12.64c-30.41-9.73-60.83-19.4-91.21-29.2   c-1.93-0.62-3.59-2.1-5.37-3.17c0.35-0.69,0.71-1.37,1.06-2.06c45.04,15.22,90.08,30.45,135.12,45.67   C967.66,647.54,967.54,648.01,967.42,648.48z"></path>
	<path class="st0" d="M125.54,672.34c5.04-2.44,10.06-4.92,15.12-7.33c23.87-11.35,47.74-22.7,71.64-33.99   c1.97-0.93,4.43-3.21,6.1,1.59c-30.72,13.99-61.35,27.94-91.98,41.88C126.13,673.78,125.84,673.06,125.54,672.34z"></path>
	<path class="st0" d="M259.91,759.34c-28.79,29.95-57.59,59.89-86.38,89.84c-0.34-0.3-0.67-0.61-1.01-0.91   c6.96-7.56,13.89-15.15,20.88-22.68c7.26-7.81,14.58-15.56,21.86-23.35c7.16-7.67,14.15-15.51,21.49-23.01   c7.12-7.28,13.12-15.83,21.57-21.69C258.85,758.14,259.38,758.74,259.91,759.34z"></path>
	<path class="st0" d="M931.66,471.84c-33.57,2.88-67.25,4.2-100.84,6.76c-0.18-0.68-0.36-1.37-0.54-2.05   c2.35-0.67,4.67-1.8,7.06-1.95c12.77-0.82,25.55-1.44,38.33-2.05c18.56-0.89,37.13-1.72,55.69-2.58   C931.45,470.59,931.56,471.22,931.66,471.84z"></path>
	<path class="st0" d="M819.92,644.78c1.62,0.16,3.44-0.1,4.82,0.56c21.25,10.21,42.44,20.53,63.64,30.84   c0.41,0.2,0.73,0.59,1.15,0.93C886.55,678.24,827.09,651.75,819.92,644.78z"></path>
	<path class="st0" d="M68.39,286.87c27.54,12.83,55.08,25.65,82.62,38.48c-0.19,0.63-0.38,1.27-0.57,1.9   c-1.55-0.43-3.2-0.63-4.62-1.32c-22.14-10.68-44.25-21.42-66.37-32.15c-3.85-1.87-7.71-3.72-11.57-5.57   C68.04,287.77,68.22,287.32,68.39,286.87z"></path>
	<path class="st0" d="M881.37,187.64c-3.77,6.83-65.67,57.09-69.9,56.45C835.18,224.95,858.27,206.29,881.37,187.64z"></path>
	<path class="st0" d="M755.2,230.98c14.91-15.45,29.82-30.9,44.73-46.36c0.43,0.32,0.86,0.65,1.28,0.97   c-0.57,0.95-0.99,2.04-1.72,2.83c-12.55,13.55-25.09,27.1-37.78,40.52c-1.45,1.53-3.77,2.24-5.68,3.33   C755.75,231.84,755.48,231.41,755.2,230.98z"></path>
	<path class="st0" d="M198.98,298.36c-1.62-0.17-3.58,0.19-4.81-0.59c-14.73-9.43-29.35-19.02-43.97-28.6   c-0.47-0.31-0.68-1.01-1.01-1.53c0.3-0.43,0.6-0.85,0.91-1.28c16.39,10.27,32.77,20.55,49.16,30.82   C199.16,297.58,199.07,297.97,198.98,298.36z"></path>
	<path class="st0" d="M177.6,603.47c-15.12,4.71-30.24,9.42-45.36,14.13c-0.24-0.36-0.48-0.72-0.72-1.09   c1.04-0.91,1.93-2.25,3.14-2.65c12.88-4.36,25.8-8.62,38.76-12.75c1.29-0.41,2.92,0.24,4.39,0.4   C177.73,602.16,177.67,602.81,177.6,603.47z"></path>
	<path class="st0" d="M30.44,402.54c21.01,3.92,42.01,7.85,63.82,11.92C90.83,416.55,35.91,406.13,30.44,402.54z"></path>
	<path class="st0" d="M174.18,557.33c-0.73,1.06-1.31,2.88-2.2,3.05c-10.11,1.93-20.26,3.62-30.42,5.3   c-0.67,0.11-1.45-0.37-2.27-1.37C150.31,560.15,161.95,559.01,174.18,557.33z"></path>
	<path class="st0" d="M181.87,761.8c5.55-7.02,19.8-17.6,23.56-16.58c-7.79,6.29-15.14,12.23-22.48,18.16   C182.59,762.86,182.23,762.33,181.87,761.8z"></path>
	<path class="st0" d="M52.13,523.75c-9.94,0.49-19.88,0.98-29.81,1.47c-0.02-0.44-0.05-0.87-0.07-1.31c9.97-0.6,19.94-1.2,29.92-1.8   C52.15,522.65,52.14,523.2,52.13,523.75z"></path>
	<path class="st0" d="M921.27,302.01c8.36-3.84,16.72-7.68,25.09-11.53c0.2,0.43,0.4,0.85,0.6,1.28   c-8.28,3.93-16.56,7.87-24.84,11.8C921.84,303.04,921.55,302.52,921.27,302.01z"></path>
	<path class="st0" d="M121.22,367.68c-4.01,2.25-13.31-0.66-16.59-5.23C110.58,364.33,115.57,365.9,121.22,367.68z"></path>
</g>
</svg>
